<svg width="720" height="406" viewBox="0 0 720 406" fill="none" xmlns="http://www.w3.org/2000/svg">
<g clip-path="url(#clip0)">
<rect width="720" height="405.437" rx="8" fill="#C7D8DE"/>
<g filter="url(#filter0_d)">
<rect width="24" height="405" fill="#795548"/>
</g>
<g filter="url(#filter1_d)">
<path d="M142 127.736V123.248H146.092C147.529 122.691 148.747 121.957 149.744 121.048C150.771 120.139 151.431 119.097 151.724 117.924C151.137 118.247 150.492 118.511 149.788 118.716C149.113 118.921 148.307 119.024 147.368 119.024C145.139 119.024 143.408 118.555 142.176 117.616C140.944 116.648 140.328 115.328 140.328 113.656C140.328 111.925 141.003 110.517 142.352 109.432C143.731 108.317 145.593 107.76 147.94 107.76C149.905 107.76 151.563 108.171 152.912 108.992C154.261 109.813 155.288 110.884 155.992 112.204C156.696 113.495 157.048 114.888 157.048 116.384C157.048 117.88 156.813 119.185 156.344 120.3C155.875 121.415 155.259 122.397 154.496 123.248H157.664V127.736H156.96C156.344 127.736 155.772 127.707 155.244 127.648C155.801 128.205 156.227 128.851 156.52 129.584C156.813 130.317 156.96 131.168 156.96 132.136C156.96 134.424 156.153 136.228 154.54 137.548C152.927 138.868 150.595 139.528 147.544 139.528C145.637 139.528 144.024 139.235 142.704 138.648C141.413 138.061 140.284 137.181 139.316 136.008C137.937 137.475 136.5 138.428 135.004 138.868C133.537 139.308 131.953 139.528 130.252 139.528C128.463 139.528 126.967 139.22 125.764 138.604C124.561 137.959 123.652 137.137 123.036 136.14C122.449 135.113 122.156 134.028 122.156 132.884C122.156 131.564 122.361 130.435 122.772 129.496C123.183 128.528 123.887 127.619 124.884 126.768C125.911 125.888 127.289 124.935 129.02 123.908C130.047 123.292 130.795 122.749 131.264 122.28C131.763 121.781 132.012 121.239 132.012 120.652C132.012 120.183 131.821 119.801 131.44 119.508C131.088 119.215 130.501 119.068 129.68 119.068C128.771 119.068 128.111 119.259 127.7 119.64C127.319 120.021 127.128 120.505 127.128 121.092C127.128 121.444 127.187 121.825 127.304 122.236C127.421 122.617 127.553 122.955 127.7 123.248L122.376 125.184C121.995 124.568 121.672 123.835 121.408 122.984C121.173 122.133 121.056 121.297 121.056 120.476C121.056 118.657 121.76 117.161 123.168 115.988C124.576 114.815 126.82 114.228 129.9 114.228C132.041 114.228 133.713 114.551 134.916 115.196C136.148 115.812 137.013 116.604 137.512 117.572C138.04 118.511 138.304 119.464 138.304 120.432C138.304 121.547 138.099 122.529 137.688 123.38C137.277 124.231 136.588 125.067 135.62 125.888C134.652 126.709 133.332 127.633 131.66 128.66C130.399 129.423 129.563 130.024 129.152 130.464C128.771 130.904 128.58 131.417 128.58 132.004C128.58 133.295 129.563 133.94 131.528 133.94C133.083 133.94 134.285 133.515 135.136 132.664C135.987 131.813 136.456 130.699 136.544 129.32H142.308C142.66 132.4 144.244 133.94 147.06 133.94C148.175 133.94 149.025 133.705 149.612 133.236C150.228 132.767 150.536 132.092 150.536 131.212C150.536 130.332 150.272 129.613 149.744 129.056C149.245 128.469 148.659 128.029 147.984 127.736H142ZM145.74 113.436C145.74 114.081 145.989 114.521 146.488 114.756C146.987 114.991 147.515 115.108 148.072 115.108C149.304 115.108 150.36 114.697 151.24 113.876C150.917 113.26 150.463 112.761 149.876 112.38C149.319 111.969 148.673 111.764 147.94 111.764C147.383 111.764 146.869 111.896 146.4 112.16C145.96 112.424 145.74 112.849 145.74 113.436ZM174.848 139.528C171.328 139.528 168.542 139.088 166.488 138.208C164.435 137.328 162.954 136.125 162.044 134.6C161.164 133.045 160.724 131.315 160.724 129.408C160.724 129.173 160.739 128.836 160.768 128.396C160.798 127.927 160.871 127.443 160.988 126.944L167.104 127.692C167.075 127.868 167.046 128.044 167.016 128.22C167.016 128.396 167.016 128.543 167.016 128.66C167.016 129.276 167.09 129.907 167.236 130.552C167.412 131.168 167.75 131.74 168.248 132.268C168.776 132.796 169.554 133.221 170.58 133.544C171.607 133.867 173 134.028 174.76 134.028C176.579 134.028 178.016 133.837 179.072 133.456C180.128 133.075 180.891 132.576 181.36 131.96C181.859 131.315 182.138 130.611 182.196 129.848C181.522 130.435 180.686 130.919 179.688 131.3C178.72 131.652 177.518 131.828 176.08 131.828C173.851 131.828 172.208 131.344 171.152 130.376C170.096 129.408 169.568 128.22 169.568 126.812C169.568 125.932 169.788 125.111 170.228 124.348C170.698 123.585 171.431 122.969 172.428 122.5C173.455 122.001 174.79 121.752 176.432 121.752C176.931 121.752 177.4 121.767 177.84 121.796C178.31 121.825 178.75 121.884 179.16 121.972C178.984 121.62 178.764 121.297 178.5 121.004C178.236 120.711 177.943 120.461 177.62 120.256H177.532H160.812V114.712H176.124C177.708 114.712 178.823 114.653 179.468 114.536C180.114 114.419 180.583 114.257 180.876 114.052C181.287 113.817 181.551 113.539 181.668 113.216C181.786 112.893 181.844 112.497 181.844 112.028C181.844 111.207 181.639 110.415 181.228 109.652C180.818 108.889 180.231 108.068 179.468 107.188L184.308 104.328C185.746 106.088 186.714 107.643 187.212 108.992C187.74 110.341 188.004 111.749 188.004 113.216C188.004 113.891 187.872 114.697 187.608 115.636C187.374 116.545 186.86 117.367 186.068 118.1C185.423 118.716 184.646 119.185 183.736 119.508C184.294 120.124 184.734 120.828 185.056 121.62C185.408 122.383 185.584 123.248 185.584 124.216C186.376 124.979 186.978 125.873 187.388 126.9C187.799 127.897 188.004 128.968 188.004 130.112C188.004 132.283 187.447 134.072 186.332 135.48C185.218 136.859 183.678 137.885 181.712 138.56C179.747 139.205 177.459 139.528 174.848 139.528ZM174.98 126.768C174.98 127.472 175.582 127.824 176.784 127.824C177.371 127.824 177.914 127.677 178.412 127.384C178.911 127.091 179.278 126.636 179.512 126.02C179.131 125.873 178.735 125.785 178.324 125.756C177.943 125.697 177.547 125.668 177.136 125.668C176.286 125.668 175.714 125.785 175.42 126.02C175.127 126.255 174.98 126.504 174.98 126.768ZM195.552 141.596C195.552 144.119 194.907 146.216 193.616 147.888C192.355 149.56 190.58 150.807 188.292 151.628C185.975 152.479 183.262 152.904 180.152 152.904C178.832 152.904 177.454 152.816 176.016 152.64C174.579 152.464 173.215 152.2 171.924 151.848L172.936 147.624C173.934 147.888 175.004 148.093 176.148 148.24C177.292 148.387 178.554 148.46 179.932 148.46C183.658 148.46 186.43 147.785 188.248 146.436C190.067 145.087 190.976 143.341 190.976 141.2C190.976 140.173 190.815 139.279 190.492 138.516C190.17 137.724 189.803 137.049 189.392 136.492L193.352 134.424C194.232 135.685 194.819 136.947 195.112 138.208C195.406 139.44 195.552 140.569 195.552 141.596ZM205.839 139.528C203.023 139.528 200.779 138.78 199.107 137.284C197.465 135.788 196.643 133.808 196.643 131.344C196.643 129.173 197.347 127.443 198.755 126.152C200.193 124.832 202.055 124.172 204.343 124.172C206.426 124.172 207.981 124.597 209.007 125.448C210.063 126.299 210.591 127.472 210.591 128.968C210.591 129.437 210.518 129.921 210.371 130.42C210.225 130.919 210.063 131.329 209.887 131.652L205.487 131.3C205.605 130.977 205.663 130.655 205.663 130.332C205.663 129.393 205.165 128.924 204.167 128.924C203.61 128.924 203.126 129.115 202.715 129.496C202.305 129.848 202.099 130.376 202.099 131.08C202.099 131.989 202.495 132.693 203.287 133.192C204.079 133.691 205.297 133.94 206.939 133.94C208.758 133.94 210.078 133.515 210.899 132.664C211.75 131.813 212.234 130.699 212.351 129.32H218.115C218.233 130.933 218.658 132.107 219.391 132.84C220.154 133.573 221.034 133.94 222.031 133.94C223.234 133.94 224.085 133.559 224.583 132.796C225.082 132.004 225.331 131.036 225.331 129.892C225.331 127.897 224.642 126.035 223.263 124.304C221.885 122.573 220.037 121.224 217.719 120.256H196.643V114.712H219.831C221.415 114.712 222.53 114.653 223.175 114.536C223.821 114.419 224.305 114.257 224.627 114.052C225.038 113.817 225.302 113.539 225.419 113.216C225.537 112.893 225.595 112.497 225.595 112.028C225.595 111.207 225.375 110.415 224.935 109.652C224.525 108.889 223.938 108.068 223.175 107.188L228.059 104.328C229.497 106.088 230.465 107.643 230.963 108.992C231.491 110.341 231.755 111.749 231.755 113.216C231.755 113.891 231.623 114.697 231.359 115.636C231.095 116.545 230.582 117.367 229.819 118.1C229.379 118.511 228.866 118.863 228.279 119.156C227.722 119.449 227.047 119.684 226.255 119.86C228.045 121.209 229.409 122.735 230.347 124.436C231.286 126.137 231.755 128.044 231.755 130.156C231.755 132.473 231.359 134.321 230.567 135.7C229.775 137.049 228.734 138.032 227.443 138.648C226.153 139.235 224.774 139.528 223.307 139.528C221.459 139.528 219.905 139.249 218.643 138.692C217.382 138.135 216.238 137.269 215.211 136.096C213.979 137.299 212.645 138.179 211.207 138.736C209.77 139.264 207.981 139.528 205.839 139.528ZM256.144 139.528C253.826 139.528 251.905 139 250.38 137.944C248.854 136.888 247.344 135.392 245.848 133.456C245.202 132.576 244.674 131.945 244.264 131.564C243.882 131.183 243.457 130.992 242.988 130.992C242.342 130.992 241.844 131.197 241.492 131.608C241.169 132.019 241.008 132.532 241.008 133.148C241.008 133.969 241.169 134.732 241.492 135.436C241.814 136.111 242.254 136.888 242.812 137.768L237.224 140.056C236.49 139.088 235.874 137.929 235.376 136.58C234.877 135.231 234.628 134.013 234.628 132.928C234.628 130.728 235.302 128.939 236.652 127.56C238.03 126.181 240.054 125.492 242.724 125.492C244.308 125.492 245.73 125.829 246.992 126.504C248.253 127.149 249.558 128.367 250.908 130.156C251.876 131.417 252.741 132.371 253.504 133.016C254.296 133.632 255.161 133.94 256.1 133.94C258.182 133.94 259.224 132.605 259.224 129.936C259.224 127.853 258.534 125.961 257.156 124.26C255.777 122.559 253.929 121.224 251.612 120.256H234.672V114.712H253.724C255.308 114.712 256.422 114.653 257.068 114.536C257.713 114.419 258.197 114.257 258.52 114.052C258.901 113.817 259.15 113.539 259.268 113.216C259.385 112.893 259.444 112.497 259.444 112.028C259.444 111.207 259.238 110.415 258.828 109.652C258.417 108.889 257.83 108.068 257.068 107.188L261.952 104.328C263.36 106.088 264.313 107.643 264.812 108.992C265.34 110.341 265.604 111.749 265.604 113.216C265.604 113.891 265.472 114.697 265.208 115.636C264.973 116.545 264.46 117.367 263.668 118.1C263.14 118.569 262.582 118.936 261.996 119.2C261.409 119.464 260.778 119.669 260.104 119.816C261.922 121.195 263.301 122.735 264.24 124.436C265.178 126.137 265.648 128.044 265.648 130.156C265.648 133.295 264.826 135.641 263.184 137.196C261.57 138.751 259.224 139.528 256.144 139.528ZM271.171 139.528C268.766 139.528 266.668 139 264.879 137.944C263.06 136.859 261.286 135.392 259.555 133.544L263.251 129.496C264.19 130.845 265.202 131.931 266.287 132.752C267.343 133.544 268.619 133.94 270.115 133.94C271.758 133.94 273.019 133.485 273.899 132.576C274.779 131.667 275.219 130.405 275.219 128.792C275.219 126.533 274.515 124.671 273.107 123.204C271.728 121.737 269.998 120.52 267.915 119.552L271.259 114.14C273.254 115.079 275.028 116.252 276.583 117.66C278.138 119.039 279.37 120.667 280.279 122.544C281.188 124.421 281.643 126.533 281.643 128.88C281.643 132.077 280.778 134.659 279.047 136.624C277.316 138.56 274.691 139.528 271.171 139.528ZM275.32 141.42C277.11 141.42 278.62 141.845 279.852 142.696C281.084 143.576 282.258 144.911 283.372 146.7C284.282 145.468 284.736 144.075 284.736 142.52C284.736 141.405 284.604 140.452 284.34 139.66C284.106 138.897 283.783 138.164 283.372 137.46L287.156 135.524C288.476 137.431 289.136 139.748 289.136 142.476C289.136 144.148 288.799 145.629 288.124 146.92C287.479 148.24 286.614 149.369 285.528 150.308C285.91 150.777 286.306 151.085 286.716 151.232C287.156 151.408 287.728 151.496 288.432 151.496C288.696 151.496 289.004 151.467 289.356 151.408C289.738 151.349 290.031 151.276 290.236 151.188L290.852 155.016C290.618 155.133 290.236 155.251 289.708 155.368C289.21 155.485 288.711 155.544 288.212 155.544C286.628 155.544 285.411 155.28 284.56 154.752C283.71 154.224 282.932 153.417 282.228 152.332C280.38 153.124 278.43 153.52 276.376 153.52C274.528 153.52 273.047 153.227 271.932 152.64C270.788 152.053 269.952 151.276 269.424 150.308C268.896 149.34 268.632 148.313 268.632 147.228C268.632 145.497 269.248 144.089 270.48 143.004C271.712 141.948 273.326 141.42 275.32 141.42ZM273.076 147.272C273.076 147.829 273.34 148.372 273.868 148.9C274.367 149.457 275.379 149.736 276.904 149.736C278.195 149.736 279.368 149.501 280.424 149.032C279.016 146.48 277.432 145.204 275.672 145.204C274.822 145.204 274.176 145.395 273.736 145.776C273.296 146.157 273.076 146.656 273.076 147.272ZM141.164 209.528C139.668 209.528 138.407 209.235 137.38 208.648C136.353 208.061 135.488 207.313 134.784 206.404C134.08 205.465 133.435 204.497 132.848 203.5C132.115 202.209 131.484 201.241 130.956 200.596C130.428 199.951 129.929 199.511 129.46 199.276C129.02 199.041 128.507 198.924 127.92 198.924C126.923 198.924 126.145 199.247 125.588 199.892C125.06 200.508 124.796 201.373 124.796 202.488C124.796 203.427 125.001 204.395 125.412 205.392C125.823 206.36 126.365 207.313 127.04 208.252L123.608 209.616C122.933 208.677 122.376 207.592 121.936 206.36C121.496 205.128 121.276 203.881 121.276 202.62C121.276 201.241 121.569 200.024 122.156 198.968C122.743 197.912 123.535 197.091 124.532 196.504C125.529 195.888 126.644 195.58 127.876 195.58C129.695 195.58 131.132 196.005 132.188 196.856C133.244 197.707 134.271 199.012 135.268 200.772C135.943 201.916 136.559 202.884 137.116 203.676C137.703 204.468 138.333 205.069 139.008 205.48C139.683 205.861 140.504 206.052 141.472 206.052C143.525 206.052 144.977 205.275 145.828 203.72C146.708 202.165 147.148 200.156 147.148 197.692C147.148 195.316 146.796 193.057 146.092 190.916C145.417 188.745 144.479 186.809 143.276 185.108C142.073 183.377 140.695 181.969 139.14 180.884C138.583 182.732 137.673 184.081 136.412 184.932C135.18 185.753 133.743 186.164 132.1 186.164C130.223 186.164 128.727 185.709 127.612 184.8C126.497 183.891 125.94 182.541 125.94 180.752C125.94 179.256 126.512 177.995 127.656 176.968C128.829 175.941 130.399 175.428 132.364 175.428C134.945 175.428 137.351 176.015 139.58 177.188C141.809 178.332 143.76 179.931 145.432 181.984C147.133 184.008 148.453 186.369 149.392 189.068C150.331 191.767 150.8 194.671 150.8 197.78C150.8 201.857 149.905 204.835 148.116 206.712C146.356 208.589 144.039 209.528 141.164 209.528ZM129.372 180.796C129.372 181.5 129.592 182.057 130.032 182.468C130.501 182.879 131.147 183.084 131.968 183.084C133.024 183.084 133.948 182.791 134.74 182.204C135.532 181.617 135.987 180.635 136.104 179.256C134.813 178.757 133.523 178.508 132.232 178.508C131.264 178.508 130.545 178.728 130.076 179.168C129.607 179.608 129.372 180.151 129.372 180.796ZM169.464 190.08C169.464 191.957 168.804 193.541 167.484 194.832C166.194 196.123 164.287 196.768 161.764 196.768C160.972 196.768 160.239 196.68 159.564 196.504C158.89 196.328 158.288 196.093 157.76 195.8C157.966 198.381 158.86 200.493 160.444 202.136C162.028 203.749 164.023 205.099 166.428 206.184L164.536 209.528C162.542 208.56 160.767 207.387 159.212 206.008C157.658 204.6 156.44 202.972 155.56 201.124C154.68 199.276 154.24 197.164 154.24 194.788C154.24 192.617 154.622 190.755 155.384 189.2C156.147 187.616 157.188 186.399 158.508 185.548C159.828 184.668 161.339 184.228 163.04 184.228C165.123 184.228 166.707 184.771 167.792 185.856C168.907 186.941 169.464 188.349 169.464 190.08ZM162.864 187.308C161.72 187.308 160.664 187.748 159.696 188.628C158.758 189.508 158.142 190.784 157.848 192.456C158.288 192.808 158.802 193.101 159.388 193.336C160.004 193.571 160.694 193.688 161.456 193.688C163.011 193.688 164.14 193.365 164.844 192.72C165.548 192.045 165.9 191.209 165.9 190.212C165.9 188.276 164.888 187.308 162.864 187.308ZM180.561 209.528C178.919 209.528 177.437 209.205 176.117 208.56C174.827 207.915 173.815 207.005 173.081 205.832C172.348 204.659 171.981 203.265 171.981 201.652C171.981 200.361 172.245 199.203 172.773 198.176C173.301 197.12 174.064 196.284 175.061 195.668C176.059 195.052 177.261 194.744 178.669 194.744C180.224 194.744 181.471 195.111 182.409 195.844C183.348 196.577 183.817 197.575 183.817 198.836C183.817 199.305 183.773 199.775 183.685 200.244C183.597 200.713 183.451 201.109 183.245 201.432L180.253 201.168C180.312 200.992 180.371 200.772 180.429 200.508C180.488 200.215 180.517 199.965 180.517 199.76C180.517 198.469 179.857 197.824 178.537 197.824C177.628 197.824 176.865 198.147 176.249 198.792C175.663 199.408 175.369 200.317 175.369 201.52C175.369 202.84 175.824 203.925 176.733 204.776C177.643 205.627 179.036 206.052 180.913 206.052C182.937 206.052 184.419 205.539 185.357 204.512C186.296 203.485 186.839 202.121 186.985 200.42H190.329C190.476 202.385 191.048 203.823 192.045 204.732C193.072 205.612 194.289 206.052 195.697 206.052C197.34 206.052 198.484 205.524 199.129 204.468C199.775 203.383 200.097 202.092 200.097 200.596C200.097 198.396 199.628 196.431 198.689 194.7C197.751 192.94 196.548 191.503 195.081 190.388C193.644 189.244 192.163 188.496 190.637 188.144H171.981V184.756H193.013C195.008 184.756 196.431 184.639 197.281 184.404C198.161 184.14 198.807 183.788 199.217 183.348C199.569 182.937 199.804 182.483 199.921 181.984C200.068 181.456 200.141 180.913 200.141 180.356C200.141 179.124 199.76 178.171 198.997 177.496C198.235 176.792 197.252 176.44 196.049 176.44C195.169 176.44 194.392 176.645 193.717 177.056C193.043 177.437 192.559 177.921 192.265 178.508H192.309C193.043 178.508 193.615 178.684 194.025 179.036C194.436 179.359 194.641 179.813 194.641 180.4C194.641 181.075 194.407 181.603 193.937 181.984C193.497 182.336 192.911 182.512 192.177 182.512C191.121 182.512 190.359 182.16 189.889 181.456C189.449 180.723 189.229 179.916 189.229 179.036C189.229 178.127 189.493 177.247 190.021 176.396C190.579 175.516 191.371 174.797 192.397 174.24C193.453 173.683 194.744 173.404 196.269 173.404C198.587 173.404 200.405 174.108 201.725 175.516C203.045 176.895 203.705 178.669 203.705 180.84C203.705 181.925 203.544 182.908 203.221 183.788C202.899 184.668 202.385 185.431 201.681 186.076C200.567 187.073 198.997 187.704 196.973 187.968C199.115 189.405 200.772 191.18 201.945 193.292C203.119 195.375 203.705 197.707 203.705 200.288C203.705 202.4 203.339 204.145 202.605 205.524C201.901 206.873 200.963 207.885 199.789 208.56C198.616 209.205 197.355 209.528 196.005 209.528C194.656 209.528 193.541 209.367 192.661 209.044C191.781 208.751 191.033 208.311 190.417 207.724C189.801 207.137 189.215 206.419 188.657 205.568C187.601 207.181 186.428 208.252 185.137 208.78C183.847 209.279 182.321 209.528 180.561 209.528ZM222.359 190.08C222.359 191.957 221.699 193.541 220.379 194.832C219.088 196.123 217.181 196.768 214.659 196.768C213.867 196.768 213.133 196.68 212.459 196.504C211.784 196.328 211.183 196.093 210.655 195.8C210.86 198.381 211.755 200.493 213.339 202.136C214.923 203.749 216.917 205.099 219.323 206.184L217.431 209.528C215.436 208.56 213.661 207.387 212.107 206.008C210.552 204.6 209.335 202.972 208.455 201.124C207.575 199.276 207.135 197.164 207.135 194.788C207.135 192.617 207.516 190.755 208.279 189.2C209.041 187.616 210.083 186.399 211.403 185.548C212.723 184.668 214.233 184.228 215.935 184.228C218.017 184.228 219.601 184.771 220.687 185.856C221.801 186.941 222.359 188.349 222.359 190.08ZM215.759 187.308C214.615 187.308 213.559 187.748 212.591 188.628C211.652 189.508 211.036 190.784 210.743 192.456C211.183 192.808 211.696 193.101 212.283 193.336C212.899 193.571 213.588 193.688 214.351 193.688C215.905 193.688 217.035 193.365 217.739 192.72C218.443 192.045 218.795 191.209 218.795 190.212C218.795 188.276 217.783 187.308 215.759 187.308ZM132.452 279.528C129.343 279.528 126.908 278.78 125.148 277.284C123.417 275.788 122.552 273.837 122.552 271.432C122.552 268.909 123.579 266.929 125.632 265.492L121.584 265.536V262.5H130.736C131.059 262.265 131.323 261.972 131.528 261.62C131.763 261.239 131.88 260.813 131.88 260.344C131.88 259.933 131.807 259.537 131.66 259.156C131.543 258.775 131.381 258.437 131.176 258.144H121.584V254.756H134.696C136.28 254.756 137.395 254.683 138.04 254.536C138.685 254.389 139.155 254.199 139.448 253.964C139.829 253.671 140.079 253.348 140.196 252.996C140.343 252.615 140.416 252.219 140.416 251.808C140.416 249.931 139.463 248.039 137.556 246.132L140.416 244.24C141.795 245.765 142.733 247.144 143.232 248.376C143.731 249.579 143.98 250.811 143.98 252.072C143.98 252.629 143.863 253.319 143.628 254.14C143.423 254.932 142.939 255.651 142.176 256.296C141.443 256.941 140.563 257.411 139.536 257.704C138.539 257.997 137.189 258.144 135.488 258.144H134.696C135.136 258.965 135.356 259.713 135.356 260.388C135.356 260.857 135.297 261.268 135.18 261.62C135.092 261.943 134.96 262.236 134.784 262.5H143.716V265.536L139.404 265.492C140.401 266.049 141.193 266.841 141.78 267.868C142.396 268.895 142.704 270.053 142.704 271.344C142.704 273.779 141.839 275.759 140.108 277.284C138.407 278.78 135.855 279.528 132.452 279.528ZM132.628 276.096C134.975 276.096 136.647 275.597 137.644 274.6C138.671 273.573 139.184 272.341 139.184 270.904C139.184 269.261 138.627 267.956 137.512 266.988C136.427 266.02 134.799 265.536 132.628 265.536C130.399 265.536 128.741 266.049 127.656 267.076C126.6 268.073 126.072 269.349 126.072 270.904C126.072 272.459 126.615 273.72 127.7 274.688C128.785 275.627 130.428 276.096 132.628 276.096ZM161.942 279.528C158.715 279.528 155.972 278.927 153.714 277.724C151.484 276.521 149.783 274.864 148.61 272.752C147.466 270.611 146.894 268.176 146.894 265.448C146.894 263.131 147.26 261.136 147.994 259.464C148.756 257.792 149.812 256.501 151.162 255.592C152.54 254.683 154.124 254.228 155.914 254.228C157.908 254.228 159.448 254.756 160.534 255.812C161.648 256.868 162.206 258.305 162.206 260.124C162.206 262.001 161.546 263.585 160.226 264.876C158.935 266.137 157.058 266.768 154.594 266.768C153.684 266.768 152.878 266.665 152.174 266.46C151.47 266.225 150.854 265.947 150.326 265.624C150.355 267.501 150.81 269.232 151.69 270.816C152.57 272.371 153.89 273.617 155.65 274.556C157.41 275.495 159.58 275.964 162.162 275.964C166.151 275.964 169.26 274.835 171.49 272.576C173.719 270.317 174.834 267.017 174.834 262.676C174.834 260.887 174.614 259.068 174.174 257.22C173.763 255.372 173.103 253.729 172.194 252.292C171.578 253.641 170.712 254.624 169.598 255.24C168.483 255.856 167.236 256.164 165.858 256.164C163.951 256.164 162.44 255.709 161.326 254.8C160.211 253.861 159.654 252.512 159.654 250.752C159.654 249.256 160.226 247.995 161.37 246.968C162.543 245.941 164.127 245.428 166.122 245.428C168.116 245.428 169.876 245.883 171.402 246.792C172.927 247.701 174.218 248.963 175.274 250.576C176.33 252.16 177.122 253.993 177.65 256.076C178.207 258.129 178.486 260.329 178.486 262.676C178.486 265.903 177.899 268.792 176.726 271.344C175.582 273.867 173.792 275.861 171.358 277.328C168.923 278.795 165.784 279.528 161.942 279.528ZM163.086 250.796C163.086 251.5 163.306 252.057 163.746 252.468C164.215 252.879 164.86 253.084 165.682 253.084C166.65 253.084 167.515 252.835 168.278 252.336C169.04 251.837 169.539 250.957 169.774 249.696C169.216 249.315 168.615 249.021 167.97 248.816C167.354 248.611 166.679 248.508 165.946 248.508C165.007 248.508 164.288 248.728 163.79 249.168C163.32 249.608 163.086 250.151 163.086 250.796ZM155.914 257.308C154.74 257.308 153.655 257.704 152.658 258.496C151.69 259.259 151.015 260.564 150.634 262.412C151.044 262.705 151.558 262.999 152.174 263.292C152.79 263.556 153.508 263.688 154.33 263.688C155.884 263.688 157.014 263.365 157.718 262.72C158.422 262.045 158.774 261.209 158.774 260.212C158.774 259.273 158.51 258.555 157.982 258.056C157.454 257.557 156.764 257.308 155.914 257.308ZM169.77 293.476C167.981 293.476 166.514 292.977 165.37 291.98C164.197 290.983 163.61 289.677 163.61 288.064C163.61 286.627 164.05 285.468 164.93 284.588C165.81 283.708 166.984 283.268 168.45 283.268C169.653 283.268 170.606 283.547 171.31 284.104C171.985 284.661 172.322 285.424 172.322 286.392C172.322 287.096 172.19 287.741 171.926 288.328L169.374 288.108C169.462 287.785 169.506 287.463 169.506 287.14C169.506 286.817 169.404 286.539 169.198 286.304C168.993 286.069 168.656 285.952 168.186 285.952C167.805 285.952 167.438 286.084 167.086 286.348C166.705 286.641 166.514 287.184 166.514 287.976C166.514 288.885 166.822 289.56 167.438 290C168.025 290.44 168.861 290.66 169.946 290.66C171.208 290.66 172.19 290.352 172.894 289.736C173.569 289.12 173.965 288.284 174.082 287.228H176.986C177.074 288.313 177.412 289.149 177.998 289.736C178.556 290.352 179.318 290.66 180.286 290.66C181.372 290.66 182.149 290.411 182.618 289.912C183.117 289.413 183.425 288.797 183.542 288.064C183.689 287.331 183.762 286.641 183.762 285.996C183.762 284.735 183.498 283.297 182.97 281.684C182.442 280.071 181.665 278.648 180.638 277.416L183.586 275.964C184.701 277.46 185.566 279.044 186.182 280.716C186.828 282.388 187.15 284.133 187.15 285.952C187.15 287.771 186.842 289.237 186.226 290.352C185.64 291.467 184.833 292.259 183.806 292.728C182.78 293.227 181.636 293.476 180.374 293.476C179.142 293.476 178.145 293.241 177.382 292.772C176.62 292.303 175.974 291.701 175.446 290.968C174.684 291.907 173.848 292.552 172.938 292.904C172 293.285 170.944 293.476 169.77 293.476ZM198.639 263.424C197.29 263.424 196.102 263.277 195.075 262.984C194.078 262.691 193.271 262.383 192.655 262.06L194.371 259.376C195.017 259.728 195.662 260.007 196.307 260.212C196.982 260.388 197.73 260.476 198.551 260.476C199.343 260.476 200.062 260.373 200.707 260.168C201.382 259.933 201.925 259.523 202.335 258.936C202.746 258.32 202.951 257.455 202.951 256.34V256.076C202.394 256.575 201.705 257.015 200.883 257.396C200.091 257.748 199.109 257.924 197.935 257.924C196.938 257.924 195.985 257.763 195.075 257.44C194.166 257.088 193.433 256.545 192.875 255.812C192.318 255.079 192.039 254.155 192.039 253.04C192.039 251.544 192.597 250.283 193.711 249.256C194.855 248.2 196.395 247.672 198.331 247.672C200.003 247.672 201.411 248.039 202.555 248.772C203.729 249.505 204.623 250.488 205.239 251.72C205.855 252.952 206.163 254.301 206.163 255.768C206.163 258.467 205.474 260.417 204.095 261.62C202.717 262.823 200.898 263.424 198.639 263.424ZM195.383 252.82C195.383 253.407 195.53 253.861 195.823 254.184C196.117 254.507 196.454 254.727 196.835 254.844C197.246 254.961 197.613 255.02 197.935 255.02C198.991 255.02 199.871 254.859 200.575 254.536C201.279 254.184 201.895 253.715 202.423 253.128C202.042 252.336 201.485 251.72 200.751 251.28C200.047 250.84 199.241 250.62 198.331 250.62C197.363 250.62 196.63 250.825 196.131 251.236C195.633 251.617 195.383 252.145 195.383 252.82ZM206.691 279.528C205.137 279.528 203.846 279.235 202.819 278.648C201.822 278.061 200.971 277.313 200.267 276.404C199.593 275.465 198.962 274.497 198.375 273.5C197.642 272.209 197.011 271.241 196.483 270.596C195.955 269.951 195.457 269.511 194.987 269.276C194.547 269.041 194.034 268.924 193.447 268.924C192.45 268.924 191.673 269.247 191.115 269.892C190.587 270.508 190.323 271.373 190.323 272.488C190.323 273.427 190.529 274.395 190.939 275.392C191.35 276.36 191.893 277.313 192.567 278.252L189.135 279.616C188.461 278.677 187.903 277.592 187.463 276.36C187.023 275.099 186.803 273.837 186.803 272.576C186.803 271.227 187.097 270.024 187.683 268.968C188.27 267.912 189.062 267.091 190.059 266.504C191.057 265.888 192.171 265.58 193.403 265.58C194.635 265.58 195.677 265.771 196.527 266.152C197.378 266.533 198.126 267.105 198.771 267.868C199.446 268.631 200.121 269.599 200.795 270.772C201.47 271.916 202.086 272.884 202.643 273.676C203.23 274.468 203.861 275.069 204.535 275.48C205.21 275.861 206.031 276.052 206.999 276.052C208.466 276.052 209.551 275.524 210.255 274.468C210.959 273.412 211.311 272.077 211.311 270.464C211.311 269.144 211.047 267.795 210.519 266.416C209.991 265.037 209.023 263.556 207.615 261.972L210.607 259.86C211.986 261.356 213.042 262.94 213.775 264.612C214.538 266.284 214.919 268.103 214.919 270.068C214.919 273.06 214.201 275.392 212.763 277.064C211.326 278.707 209.302 279.528 206.691 279.528ZM229.003 279.528C225.893 279.528 223.459 278.78 221.699 277.284C219.968 275.788 219.103 273.837 219.103 271.432C219.103 268.909 220.129 266.929 222.183 265.492L218.135 265.536V262.5H227.287C227.609 262.265 227.873 261.972 228.079 261.62C228.313 261.239 228.431 260.813 228.431 260.344C228.431 259.933 228.357 259.537 228.211 259.156C228.093 258.775 227.932 258.437 227.727 258.144H218.135V254.756H229.707C231.701 254.756 233.124 254.639 233.975 254.404C234.855 254.14 235.5 253.788 235.911 253.348C236.263 252.937 236.497 252.483 236.615 251.984C236.761 251.456 236.835 250.913 236.835 250.356C236.835 249.124 236.453 248.171 235.691 247.496C234.928 246.792 233.945 246.44 232.743 246.44C231.863 246.44 231.085 246.645 230.411 247.056C229.736 247.437 229.252 247.921 228.959 248.508H229.003C229.736 248.508 230.308 248.684 230.719 249.036C231.129 249.359 231.335 249.813 231.335 250.4C231.335 251.075 231.1 251.603 230.631 251.984C230.191 252.336 229.604 252.512 228.871 252.512C227.815 252.512 227.052 252.16 226.583 251.456C226.143 250.723 225.923 249.916 225.923 249.036C225.923 248.127 226.187 247.247 226.715 246.396C227.272 245.516 228.064 244.797 229.091 244.24C230.147 243.683 231.437 243.404 232.963 243.404C235.28 243.404 237.099 244.108 238.419 245.516C239.739 246.895 240.399 248.669 240.399 250.84C240.399 251.925 240.237 252.908 239.915 253.788C239.592 254.668 239.079 255.431 238.375 256.076C237.583 256.78 236.6 257.293 235.427 257.616C234.253 257.939 232.845 258.115 231.203 258.144C231.672 258.965 231.907 259.713 231.907 260.388C231.907 260.857 231.848 261.268 231.731 261.62C231.643 261.943 231.511 262.236 231.335 262.5H240.267V265.536L235.955 265.492C236.952 266.049 237.744 266.841 238.331 267.868C238.947 268.895 239.255 270.053 239.255 271.344C239.255 273.779 238.389 275.759 236.659 277.284C234.957 278.78 232.405 279.528 229.003 279.528ZM229.179 276.096C231.525 276.096 233.197 275.597 234.195 274.6C235.221 273.573 235.735 272.341 235.735 270.904C235.735 269.261 235.177 267.956 234.063 266.988C232.977 266.02 231.349 265.536 229.179 265.536C226.949 265.536 225.292 266.049 224.207 267.076C223.151 268.073 222.623 269.349 222.623 270.904C222.623 272.459 223.165 273.72 224.251 274.688C225.336 275.627 226.979 276.096 229.179 276.096ZM245.776 279.528C243.87 279.528 242.183 279.015 240.716 277.988C239.25 276.961 237.871 275.641 236.58 274.028L238.824 271.608C240.027 273.133 241.156 274.263 242.212 274.996C243.298 275.7 244.486 276.052 245.776 276.052C247.096 276.052 248.035 275.7 248.592 274.996C249.179 274.263 249.472 273.309 249.472 272.136C249.472 271.021 249.443 270.083 249.384 269.32C249.326 268.528 249.267 267.78 249.208 267.076C249.15 266.372 249.12 265.595 249.12 264.744C249.12 262.544 249.59 260.667 250.528 259.112C251.496 257.528 252.802 256.325 254.444 255.504C256.116 254.653 258.023 254.228 260.164 254.228C263.068 254.228 265.459 254.873 267.336 256.164C269.243 257.455 270.651 259.185 271.56 261.356C272.499 263.497 272.968 265.888 272.968 268.528C272.968 271.989 272.147 274.688 270.504 276.624C268.891 278.56 266.618 279.528 263.684 279.528C262.042 279.528 260.648 279.22 259.504 278.604C258.39 277.959 257.539 277.108 256.952 276.052C256.395 274.967 256.116 273.779 256.116 272.488C256.116 270.581 256.586 269.144 257.524 268.176C258.492 267.208 259.651 266.724 261 266.724C262.086 266.724 262.907 267.003 263.464 267.56C264.051 268.088 264.344 268.792 264.344 269.672C264.344 270.493 264.11 271.153 263.64 271.652C263.2 272.151 262.628 272.4 261.924 272.4C260.546 272.4 259.739 271.755 259.504 270.464C259.358 270.963 259.284 271.535 259.284 272.18C259.284 273.236 259.607 274.189 260.252 275.04C260.927 275.861 262.071 276.272 263.684 276.272C265.444 276.272 266.823 275.612 267.82 274.292C268.847 272.972 269.36 271.08 269.36 268.616C269.36 266.68 269.038 264.891 268.392 263.248C267.747 261.576 266.75 260.227 265.4 259.2C264.08 258.173 262.364 257.66 260.252 257.66C257.906 257.66 256.058 258.32 254.708 259.64C253.388 260.931 252.728 262.779 252.728 265.184C252.728 266.123 252.758 266.944 252.816 267.648C252.875 268.323 252.934 269.012 252.992 269.716C253.051 270.391 253.08 271.212 253.08 272.18C253.08 273.94 252.728 275.363 252.024 276.448C251.32 277.504 250.411 278.281 249.296 278.78C248.182 279.279 247.008 279.528 245.776 279.528ZM290.573 279.528C289.458 279.528 288.373 279.352 287.317 279C286.29 278.677 285.439 278.149 284.765 277.416C284.119 276.653 283.797 275.656 283.797 274.424C283.797 273.28 284.237 272.283 285.117 271.432C283.298 271.08 281.699 270.479 280.321 269.628C278.971 268.748 277.901 267.677 277.109 266.416C276.346 265.125 275.965 263.673 275.965 262.06C275.965 259.743 276.639 257.865 277.989 256.428C279.367 254.961 281.274 254.228 283.709 254.228C285.41 254.228 286.847 254.683 288.021 255.592C289.194 256.472 289.781 257.777 289.781 259.508C289.781 260.535 289.546 261.488 289.077 262.368C288.607 263.248 287.845 263.967 286.789 264.524C285.733 265.052 284.295 265.316 282.477 265.316C281.743 265.316 280.951 265.199 280.101 264.964C280.805 266.02 281.993 266.885 283.665 267.56C285.337 268.235 287.683 268.631 290.705 268.748C294.078 268.66 296.586 268.117 298.229 267.12C299.871 266.093 300.693 264.685 300.693 262.896C300.693 261.605 300.326 260.579 299.593 259.816C298.889 259.053 298.082 258.496 297.173 258.144H292.949V254.756H295.105C296.689 254.756 297.803 254.683 298.449 254.536C299.094 254.389 299.578 254.199 299.901 253.964C300.282 253.671 300.531 253.348 300.649 252.996C300.795 252.615 300.869 252.219 300.869 251.808C300.869 249.931 299.915 248.039 298.009 246.132L300.869 244.24C302.247 245.765 303.186 247.144 303.685 248.376C304.183 249.579 304.433 250.811 304.433 252.072C304.433 253.245 304.139 254.287 303.553 255.196C302.995 256.076 302.218 256.751 301.221 257.22C302.159 257.924 302.893 258.731 303.421 259.64C303.978 260.549 304.257 261.649 304.257 262.94C304.257 264.671 303.861 266.123 303.069 267.296C302.277 268.44 301.279 269.349 300.077 270.024C298.903 270.669 297.686 271.139 296.425 271.432C297.129 272.224 297.481 273.207 297.481 274.38C297.481 275.905 296.894 277.152 295.721 278.12C294.547 279.059 292.831 279.528 290.573 279.528ZM279.177 261.664V261.796C279.646 261.972 280.13 262.104 280.629 262.192C281.127 262.28 281.611 262.324 282.081 262.324C283.635 262.324 284.735 262.06 285.381 261.532C286.026 261.004 286.349 260.373 286.349 259.64C286.349 258.877 286.07 258.305 285.513 257.924C284.985 257.513 284.295 257.308 283.445 257.308C282.125 257.308 281.083 257.719 280.321 258.54C279.558 259.332 279.177 260.373 279.177 261.664ZM290.661 276.404C291.717 276.404 292.553 276.228 293.169 275.876C293.785 275.495 294.093 274.893 294.093 274.072C294.093 273.28 293.77 272.649 293.125 272.18C292.479 271.711 291.643 271.461 290.617 271.432C289.473 271.491 288.607 271.755 288.021 272.224C287.463 272.693 287.185 273.309 287.185 274.072C287.185 274.747 287.463 275.304 288.021 275.744C288.607 276.184 289.487 276.404 290.661 276.404ZM311.295 279.528C309.212 279.528 307.393 279.117 305.839 278.296C304.284 277.475 302.891 276.345 301.659 274.908C300.427 273.441 299.253 271.769 298.139 269.892L301.395 267.956C302.92 270.86 304.46 272.943 306.015 274.204C307.599 275.436 309.432 276.052 311.515 276.052C313.245 276.052 314.609 275.465 315.607 274.292C316.604 273.119 317.103 271.491 317.103 269.408C317.103 266.533 316.311 264.113 314.727 262.148C313.143 260.183 311.06 258.643 308.479 257.528L310.415 254.14C312.409 255.108 314.169 256.325 315.695 257.792C317.249 259.229 318.467 260.887 319.347 262.764C320.256 264.641 320.711 266.695 320.711 268.924C320.711 272.121 319.948 274.688 318.423 276.624C316.897 278.56 314.521 279.528 311.295 279.528ZM319.084 296.468C317.764 296.468 316.605 296.219 315.608 295.72C314.611 295.251 314.112 294.459 314.112 293.344C314.112 292.699 314.376 292.127 314.904 291.628C313.056 291.217 311.619 290.513 310.592 289.516C309.565 288.519 309.052 287.316 309.052 285.908C309.052 284.529 309.521 283.341 310.46 282.344C311.369 281.376 312.704 280.892 314.464 280.892C316.048 280.892 317.236 281.259 318.028 281.992C318.791 282.755 319.172 283.649 319.172 284.676C319.172 286.055 318.747 287.037 317.896 287.624C317.016 288.211 315.887 288.504 314.508 288.504C314.039 288.504 313.584 288.445 313.144 288.328C313.643 288.621 314.376 288.841 315.344 288.988C316.283 289.135 317.544 289.208 319.128 289.208C321.064 289.149 322.604 288.768 323.748 288.064C324.921 287.389 325.508 286.245 325.508 284.632C325.508 283.165 325.2 281.787 324.584 280.496C323.968 279.205 323.381 278.179 322.824 277.416L325.772 275.964C326.828 277.577 327.605 279.044 328.104 280.364C328.603 281.684 328.852 283.077 328.852 284.544C328.852 286.04 328.573 287.257 328.016 288.196C327.488 289.164 326.813 289.912 325.992 290.44C325.2 290.968 324.393 291.349 323.572 291.584C323.983 292.053 324.188 292.64 324.188 293.344C324.188 294.283 323.777 295.031 322.956 295.588C322.164 296.175 320.873 296.468 319.084 296.468ZM311.868 285.908V285.952C312.484 286.187 313.173 286.304 313.936 286.304C314.787 286.304 315.388 286.157 315.74 285.864C316.092 285.6 316.268 285.248 316.268 284.808C316.268 283.957 315.637 283.532 314.376 283.532C313.525 283.532 312.895 283.752 312.484 284.192C312.073 284.661 311.868 285.233 311.868 285.908ZM319.172 294.004C319.788 294.004 320.287 293.916 320.668 293.74C321.02 293.564 321.196 293.285 321.196 292.904C321.196 292.523 321.005 292.229 320.624 292.024C320.243 291.819 319.744 291.701 319.128 291.672C317.779 291.701 317.104 292.112 317.104 292.904C317.104 293.637 317.793 294.004 319.172 294.004ZM337.696 279.528C336.053 279.528 334.572 279.205 333.252 278.56C331.961 277.915 330.949 277.005 330.216 275.832C329.483 274.659 329.116 273.265 329.116 271.652C329.116 270.361 329.38 269.203 329.908 268.176C330.436 267.12 331.199 266.284 332.196 265.668C333.193 265.052 334.396 264.744 335.804 264.744C337.359 264.744 338.605 265.111 339.544 265.844C340.483 266.577 340.952 267.575 340.952 268.836C340.952 269.305 340.908 269.775 340.82 270.244C340.732 270.713 340.585 271.109 340.38 271.432L337.388 271.168C337.447 270.992 337.505 270.772 337.564 270.508C337.623 270.215 337.652 269.965 337.652 269.76C337.652 268.469 336.992 267.824 335.672 267.824C334.763 267.824 334 268.147 333.384 268.792C332.797 269.408 332.504 270.317 332.504 271.52C332.504 272.84 332.959 273.925 333.868 274.776C334.777 275.627 336.171 276.052 338.048 276.052C340.072 276.052 341.553 275.539 342.492 274.512C343.431 273.485 343.973 272.121 344.12 270.42H347.464C347.611 272.385 348.183 273.823 349.18 274.732C350.177 275.612 351.351 276.052 352.7 276.052C354.783 276.052 356.235 275.275 357.056 273.72C357.907 272.165 358.332 270.156 358.332 267.692C358.332 265.287 357.98 263.013 357.276 260.872C356.572 258.701 355.604 256.751 354.372 255.02C353.14 253.289 351.732 251.881 350.148 250.796C349.591 252.673 348.681 254.037 347.42 254.888C346.159 255.739 344.721 256.164 343.108 256.164C341.201 256.164 339.691 255.709 338.576 254.8C337.461 253.891 336.904 252.541 336.904 250.752C336.904 249.256 337.476 247.995 338.62 246.968C339.793 245.941 341.363 245.428 343.328 245.428C345.909 245.428 348.329 246.015 350.588 247.188C352.847 248.332 354.827 249.931 356.528 251.984C358.229 254.008 359.564 256.369 360.532 259.068C361.5 261.767 361.984 264.671 361.984 267.78C361.984 271.857 361.133 274.835 359.432 276.712C357.731 278.589 355.516 279.528 352.788 279.528C350.94 279.528 349.517 279.191 348.52 278.516C347.552 277.841 346.643 276.859 345.792 275.568C344.736 277.181 343.563 278.252 342.272 278.78C340.981 279.279 339.456 279.528 337.696 279.528ZM340.336 250.796C340.336 251.5 340.556 252.057 340.996 252.468C341.465 252.879 342.111 253.084 342.932 253.084C343.988 253.084 344.912 252.791 345.704 252.204C346.496 251.617 346.951 250.62 347.068 249.212C345.807 248.743 344.516 248.508 343.196 248.508C342.228 248.508 341.509 248.728 341.04 249.168C340.571 249.608 340.336 250.151 340.336 250.796ZM378.192 279.528C375.816 279.528 373.674 279.073 371.768 278.164C369.89 277.255 368.409 275.935 367.324 274.204C366.238 272.444 365.696 270.303 365.696 267.78C365.696 265.551 366.092 263.644 366.884 262.06C367.705 260.447 368.834 259.141 370.272 258.144H365.696V254.756H385.936V258.012C387.49 259.068 388.664 260.388 389.456 261.972C390.277 263.527 390.688 265.463 390.688 267.78C390.688 270.068 390.189 272.092 389.192 273.852C388.194 275.612 386.757 277.005 384.88 278.032C383.032 279.029 380.802 279.528 378.192 279.528ZM378.236 275.964C380.23 275.964 381.873 275.568 383.164 274.776C384.484 273.984 385.466 272.913 386.112 271.564C386.757 270.185 387.08 268.675 387.08 267.032C387.08 265.125 386.684 263.512 385.892 262.192C385.129 260.843 384.088 259.816 382.768 259.112C381.448 258.408 379.952 258.056 378.28 258.056C375.552 258.056 373.366 258.877 371.724 260.52C370.11 262.163 369.304 264.333 369.304 267.032C369.304 269.877 370.11 272.077 371.724 273.632C373.366 275.187 375.537 275.964 378.236 275.964ZM410.416 268.396C410.416 271.945 409.609 274.688 407.996 276.624C406.382 278.56 404.08 279.528 401.088 279.528C399.474 279.528 398.096 279.22 396.952 278.604C395.837 277.959 394.986 277.108 394.4 276.052C393.842 274.967 393.564 273.779 393.564 272.488C393.564 270.581 394.033 269.144 394.972 268.176C395.94 267.208 397.098 266.724 398.448 266.724C399.533 266.724 400.354 267.003 400.912 267.56C401.498 268.088 401.792 268.792 401.792 269.672C401.792 270.493 401.557 271.153 401.088 271.652C400.648 272.151 400.076 272.4 399.372 272.4C397.993 272.4 397.186 271.755 396.952 270.464C396.805 270.963 396.732 271.535 396.732 272.18C396.732 273.236 397.054 274.189 397.7 275.04C398.374 275.861 399.518 276.272 401.132 276.272C402.862 276.272 404.241 275.627 405.268 274.336C406.294 273.045 406.808 271.065 406.808 268.396C406.808 265.169 405.986 262.691 404.344 260.96C403.757 260.315 403.097 259.787 402.364 259.376C401.63 258.965 400.692 258.657 399.548 258.452C398.404 258.247 396.937 258.144 395.148 258.144H384.412V254.756H395.984C398.917 254.756 401.249 255.093 402.98 255.768C404.74 256.443 406.192 257.44 407.336 258.76C408.333 259.845 409.096 261.209 409.624 262.852C410.152 264.465 410.416 266.313 410.416 268.396ZM421.777 248.112C424.447 248.112 426.559 248.831 428.113 250.268C429.668 251.676 430.445 253.641 430.445 256.164C430.445 257.425 430.269 258.525 429.917 259.464C429.565 260.403 429.037 261.283 428.333 262.104C427.629 262.925 426.735 263.805 425.649 264.744C424.711 265.536 423.992 266.225 423.493 266.812C422.995 267.399 422.643 267.971 422.437 268.528C422.261 269.056 422.173 269.687 422.173 270.42V270.816H419.181V270.024C419.181 269.056 419.284 268.191 419.489 267.428C419.695 266.665 420.061 265.917 420.589 265.184C421.117 264.451 421.865 263.673 422.833 262.852C423.743 262.06 424.476 261.356 425.033 260.74C425.62 260.124 426.045 259.464 426.309 258.76C426.573 258.056 426.705 257.205 426.705 256.208C426.705 254.829 426.28 253.715 425.429 252.864C424.608 251.984 423.391 251.544 421.777 251.544C420.604 251.544 419.475 251.735 418.389 252.116C417.333 252.468 416.292 252.893 415.265 253.392L413.945 250.268C415.089 249.681 416.336 249.183 417.685 248.772C419.035 248.332 420.399 248.112 421.777 248.112ZM420.853 279.528C420.12 279.528 419.475 279.293 418.917 278.824C418.389 278.355 418.125 277.592 418.125 276.536C418.125 275.421 418.389 274.644 418.917 274.204C419.475 273.764 420.12 273.544 420.853 273.544C421.616 273.544 422.261 273.764 422.789 274.204C423.317 274.644 423.581 275.421 423.581 276.536C423.581 277.592 423.317 278.355 422.789 278.824C422.261 279.293 421.616 279.528 420.853 279.528Z" fill="#795548"/>
</g>
</g>
<defs>
<filter id="filter0_d" x="0" y="-7" width="43" height="421" filterUnits="userSpaceOnUse" color-interpolation-filters="sRGB">
<feFlood flood-opacity="0" result="BackgroundImageFix"/>
<feColorMatrix in="SourceAlpha" type="matrix" values="0 0 0 0 0 0 0 0 0 0 0 0 0 0 0 0 0 0 127 0" result="hardAlpha"/>
<feOffset dx="11" dy="1"/>
<feGaussianBlur stdDeviation="4"/>
<feComposite in2="hardAlpha" operator="out"/>
<feColorMatrix type="matrix" values="0 0 0 0 0 0 0 0 0 0 0 0 0 0 0 0 0 0 0.25 0"/>
<feBlend mode="normal" in2="BackgroundImageFix" result="effect1_dropShadow"/>
<feBlend mode="normal" in="SourceGraphic" in2="effect1_dropShadow" result="shape"/>
</filter>
<filter id="filter1_d" x="117.056" y="104.328" width="317.389" height="200.14" filterUnits="userSpaceOnUse" color-interpolation-filters="sRGB">
<feFlood flood-opacity="0" result="BackgroundImageFix"/>
<feColorMatrix in="SourceAlpha" type="matrix" values="0 0 0 0 0 0 0 0 0 0 0 0 0 0 0 0 0 0 127 0" result="hardAlpha"/>
<feOffset dy="4"/>
<feGaussianBlur stdDeviation="2"/>
<feComposite in2="hardAlpha" operator="out"/>
<feColorMatrix type="matrix" values="0 0 0 0 0 0 0 0 0 0 0 0 0 0 0 0 0 0 0.25 0"/>
<feBlend mode="normal" in2="BackgroundImageFix" result="effect1_dropShadow"/>
<feBlend mode="normal" in="SourceGraphic" in2="effect1_dropShadow" result="shape"/>
</filter>
<clipPath id="clip0">
<rect width="720" height="405.437" rx="8" fill="white"/>
</clipPath>
</defs>
</svg>
